%TF.GenerationSoftware,KiCad,Pcbnew,9.0.4*%
%TF.CreationDate,2026-03-05T17:39:55-05:00*%
%TF.ProjectId,Stacking-Interface-BoardRTK,53746163-6b69-46e6-972d-496e74657266,rev?*%
%TF.SameCoordinates,Original*%
%TF.FileFunction,Legend,Bot*%
%TF.FilePolarity,Positive*%
%FSLAX46Y46*%
G04 Gerber Fmt 4.6, Leading zero omitted, Abs format (unit mm)*
G04 Created by KiCad (PCBNEW 9.0.4) date 2026-03-05 17:39:55*
%MOMM*%
%LPD*%
G01*
G04 APERTURE LIST*
%ADD10C,0.120000*%
G04 APERTURE END LIST*
D10*
%TO.C,RTK_Bottom_Left1*%
X98120000Y-82730000D02*
X98120000Y-105700000D01*
X100880000Y-80080000D02*
X99500000Y-80080000D01*
X100880000Y-81460000D02*
X100880000Y-80080000D01*
X100880000Y-82730000D02*
X98120000Y-82730000D01*
X100880000Y-82730000D02*
X100880000Y-105700000D01*
X100880000Y-105700000D02*
X98120000Y-105700000D01*
%TO.C,RTK_Top_Right1*%
X146120000Y-60730000D02*
X146120000Y-73540000D01*
X148880000Y-58080000D02*
X147500000Y-58080000D01*
X148880000Y-59460000D02*
X148880000Y-58080000D01*
X148880000Y-60730000D02*
X146120000Y-60730000D01*
X148880000Y-60730000D02*
X148880000Y-73540000D01*
X148880000Y-73540000D02*
X146120000Y-73540000D01*
%TO.C,RTK_Top_Left1*%
X98120000Y-60770000D02*
X98120000Y-78660000D01*
X100880000Y-58120000D02*
X99500000Y-58120000D01*
X100880000Y-59500000D02*
X100880000Y-58120000D01*
X100880000Y-60770000D02*
X98120000Y-60770000D01*
X100880000Y-60770000D02*
X100880000Y-78660000D01*
X100880000Y-78660000D02*
X98120000Y-78660000D01*
%TO.C,RTK_Bottom_Right1*%
X146120000Y-78270000D02*
X146120000Y-96160000D01*
X148880000Y-75620000D02*
X147500000Y-75620000D01*
X148880000Y-77000000D02*
X148880000Y-75620000D01*
X148880000Y-78270000D02*
X146120000Y-78270000D01*
X148880000Y-78270000D02*
X148880000Y-96160000D01*
X148880000Y-96160000D02*
X146120000Y-96160000D01*
%TD*%
M02*
