M48
; DRILL file {KiCad 9.0.4} date 2026-03-05T17:40:50-0500
; FORMAT={-:-/ absolute / metric / decimal}
; #@! TF.CreationDate,2026-03-05T17:40:50-05:00
; #@! TF.GenerationSoftware,Kicad,Pcbnew,9.0.4
; #@! TF.FileFunction,Plated,1,2,PTH
FMAT,2
METRIC
; #@! TA.AperFunction,Plated,PTH,ViaDrill
T1C0.300
; #@! TA.AperFunction,Plated,PTH,ComponentDrill
T2C0.800
; #@! TA.AperFunction,Plated,PTH,ComponentDrill
T3C0.900
; #@! TA.AperFunction,Plated,PTH,ComponentDrill
T4C1.000
; #@! TA.AperFunction,Plated,PTH,ComponentDrill
T5C1.100
; #@! TA.AperFunction,Plated,PTH,ComponentDrill
T6C1.320
%
G90
G05
T1
X97.675Y-80.803
X127.15Y-120.973
X129.746Y-82.455
X129.75Y-111.634
X134.617Y-63.882
X146.512Y-62.982
T2
X118.5Y-60.0
X118.5Y-66.5
X128.66Y-60.0
X128.66Y-66.5
T3
X150.185Y-101.23
X150.185Y-103.77
X150.185Y-108.73
X150.185Y-111.27
T4
X95.5Y-121.0
X99.5Y-59.5
X99.5Y-62.04
X99.5Y-64.58
X99.5Y-67.12
X99.5Y-69.66
X99.5Y-72.2
X99.5Y-74.74
X99.5Y-77.28
X99.5Y-81.46
X99.5Y-84.0
X99.5Y-86.54
X99.5Y-89.08
X99.5Y-91.62
X99.5Y-94.16
X99.5Y-96.7
X99.5Y-99.24
X99.5Y-101.78
X99.5Y-104.32
X105.5Y-121.0
X111.0Y-60.71
X111.0Y-63.25
X111.0Y-65.79
X111.0Y-68.33
X111.0Y-70.87
X111.0Y-73.41
X111.0Y-75.95
X111.0Y-78.49
X111.0Y-81.03
X111.0Y-83.57
X111.0Y-86.11
X111.0Y-88.65
X111.0Y-91.19
X111.0Y-93.73
X111.0Y-96.27
X136.0Y-60.71
X136.0Y-63.25
X136.0Y-65.79
X136.0Y-68.33
X136.0Y-70.87
X136.0Y-73.41
X136.0Y-75.95
X136.0Y-78.49
X136.0Y-81.03
X136.0Y-83.57
X136.0Y-86.11
X136.0Y-88.65
X136.0Y-91.19
X136.0Y-93.73
X136.0Y-96.27
X147.5Y-59.46
X147.5Y-62.0
X147.5Y-64.54
X147.5Y-67.08
X147.5Y-69.62
X147.5Y-72.16
X147.5Y-77.0
X147.5Y-79.54
X147.5Y-82.08
X147.5Y-84.62
X147.5Y-87.16
X147.5Y-89.7
X147.5Y-92.24
X147.5Y-94.78
T5
X113.5Y-120.0
X113.5Y-124.5
X120.0Y-120.0
X120.0Y-124.5
X124.5Y-120.0
X124.5Y-124.5
X131.0Y-120.0
X131.0Y-124.5
T6
X138.0Y-122.5
X143.0Y-122.5
T3
G00X132.3Y-110.8
M15
G01X132.3Y-109.2
M16
G05
G00X137.0Y-110.8
M15
G01X137.0Y-109.2
M16
G05
G00X141.7Y-110.8
M15
G01X141.7Y-109.2
M16
G05
M30
